<?xml version="1.0" encoding="UTF-8" standalone="no"?>
<svg
   viewBox="0 0 384 512"
   version="1.1"
   id="svg1"
   sodipodi:docname="exercise.svg"
   inkscape:version="1.3.2 (091e20e, 2023-11-25, custom)"
   xmlns:inkscape="http://www.inkscape.org/namespaces/inkscape"
   xmlns:sodipodi="http://sodipodi.sourceforge.net/DTD/sodipodi-0.dtd"
   xmlns="http://www.w3.org/2000/svg"
   xmlns:svg="http://www.w3.org/2000/svg">
  <defs
     id="defs1" />
  <sodipodi:namedview
     id="namedview1"
     pagecolor="#ffffff"
     bordercolor="#000000"
     borderopacity="0.25"
     inkscape:showpageshadow="2"
     inkscape:pageopacity="0.0"
     inkscape:pagecheckerboard="0"
     inkscape:deskcolor="#d1d1d1"
     showgrid="false"
     inkscape:zoom="1.5175781"
     inkscape:cx="191.7529"
     inkscape:cy="255.67053"
     inkscape:window-width="1920"
     inkscape:window-height="991"
     inkscape:window-x="-9"
     inkscape:window-y="-9"
     inkscape:window-maximized="1"
     inkscape:current-layer="svg1" />
  <!--!Font Awesome Free 6.5.2 by @fontawesome - https://fontawesome.com License - https://fontawesome.com/license/free Copyright 2024 Fonticons, Inc.-->
  <path
     d="m 201.0193,218.90347 v 13.87388 c 0,3.27027 -2.9166,5.94594 -6.48133,5.94594 h -90.73874 c -3.56474,0 -6.481338,-2.67567 -6.481338,-5.94594 v -13.87388 c 0,-3.27026 2.916598,-5.94594 6.481338,-5.94594 h 90.73874 c 3.56473,0 6.48133,2.67568 6.48133,5.94594 z m -6.48133,35.67568 h -90.73874 c -3.56474,0 -6.481338,2.67567 -6.481338,5.94594 v 13.87387 c 0,3.27028 2.916598,5.94595 6.481338,5.94595 h 90.73874 c 3.56473,0 6.48133,-2.67567 6.48133,-5.94595 v -13.87387 c 0,-3.27027 -2.9166,-5.94594 -6.48133,-5.94594 z m 58.33204,-93.2027 V 325.9305 c 0,13.13062 -11.61239,23.78378 -25.92535,23.78378 H 71.392532 c -14.312956,0 -25.925355,-10.65316 -25.925355,-23.78378 V 119.80438 c 0,-13.13063 11.612399,-23.78379 25.925355,-23.78379 H 181.6293 c 6.85941,0 13.44878,2.52703 18.30978,6.98649 l 45.31536,41.57207 c 4.861,4.40991 7.61557,10.5045 7.61557,16.7973 z m -69.13427,-39.63964 v 37.70721 h 41.10249 z M 226.94466,325.9305 V 183.2278 h -56.1716 c -7.18348,0 -12.96268,-5.30181 -12.96268,-11.89189 V 119.80438 H 71.392532 V 325.9305 Z"
     id="path1"
     style="stroke-width:0.517322" />
  <path
     d="m 162.72357,350.8917 h -16.17298 c -4.48126,0 -8.08648,2.42171 -8.08648,5.43188 v 23.53815 h -8.08649 c -1.48251,0 -2.69549,0.81478 -2.69549,1.81063 v 10.86376 c 0,0.99584 1.21298,1.81063 2.69549,1.81063 h 8.08649 v 23.53814 c 0,3.01017 3.60522,5.43189 8.08648,5.43189 h 16.17298 c 4.48126,0 8.08649,-2.42172 8.08649,-5.43189 v -61.56131 c 0,-3.01017 -3.60523,-5.43188 -8.08649,-5.43188 z m 177.9027,28.97003 h -8.08649 v -23.53815 c 0,-3.01017 -3.60522,-5.43188 -8.08649,-5.43188 h -16.17296 c -4.48127,0 -8.08649,2.42171 -8.08649,5.43188 v 61.56131 c 0,3.01017 3.60522,5.43189 8.08649,5.43189 h 16.17296 c 4.48127,0 8.08649,-2.42172 8.08649,-5.43189 v -23.53814 h 8.08649 c 1.48252,0 2.6955,-0.81479 2.6955,-1.81063 v -10.86376 c 0,-0.99585 -1.21298,-1.81063 -2.6955,-1.81063 z m -59.3009,-43.45505 H 265.1524 c -4.48127,0 -8.08649,2.42172 -8.08649,5.43188 v 38.02317 h -43.12792 v -38.02317 c 0,-3.01016 -3.60524,-5.43188 -8.0865,-5.43188 h -16.17297 c -4.48126,0 -8.08648,2.42172 -8.08648,5.43188 v 90.53135 c 0,3.01017 3.60522,5.43188 8.08648,5.43188 h 16.17297 c 4.48126,0 8.0865,-2.42171 8.0865,-5.43188 v -38.02316 h 43.12792 v 38.02316 c 0,3.01017 3.60522,5.43188 8.08649,5.43188 h 16.17297 c 4.48127,0 8.08649,-2.42171 8.08649,-5.43188 v -90.53135 c 0,-3.01016 -3.60522,-5.43188 -8.08649,-5.43188 z"
     id="path1-1"
     style="stroke-width:0.276149" />
</svg>
