<?xml version="1.0" encoding="UTF-8" standalone="no"?>
<svg
   viewBox="0 0 576 512"
   version="1.1"
   id="svg1"
   sodipodi:docname="help.svg"
   inkscape:version="1.3.2 (091e20e, 2023-11-25, custom)"
   xmlns:inkscape="http://www.inkscape.org/namespaces/inkscape"
   xmlns:sodipodi="http://sodipodi.sourceforge.net/DTD/sodipodi-0.dtd"
   xmlns="http://www.w3.org/2000/svg"
   xmlns:svg="http://www.w3.org/2000/svg">
  <defs
     id="defs1" />
  <sodipodi:namedview
     id="namedview1"
     pagecolor="#ffffff"
     bordercolor="#000000"
     borderopacity="0.25"
     inkscape:showpageshadow="2"
     inkscape:pageopacity="0.0"
     inkscape:pagecheckerboard="0"
     inkscape:deskcolor="#d1d1d1"
     showgrid="false"
     inkscape:zoom="1.5175781"
     inkscape:cx="287.95882"
     inkscape:cy="328.48391"
     inkscape:window-width="1920"
     inkscape:window-height="991"
     inkscape:window-x="-9"
     inkscape:window-y="-9"
     inkscape:window-maximized="1"
     inkscape:current-layer="svg1" />
  <!--!Font Awesome Free 6.5.2 by @fontawesome - https://fontawesome.com License - https://fontawesome.com/license/free Copyright 2024 Fonticons, Inc.-->
  <path
     d="m 395.47542,229.75869 c -7.00805,-11.36101 -17.93583,-10.61776 -25.30022,0 l -54.87655,78.46525 c -6.7111,9.66217 -15.08511,14.86487 -23.75607,14.86487 h -70.25862 c -5.22634,0 -9.50244,-7.64479 -9.50244,-16.98842 0,-9.34363 4.2761,-16.98842 9.50244,-16.98842 h 46.50253 c 9.44303,0 18.23279,-11.57336 19.77693,-28.24324 1.95988,-21.23552 -7.18622,-39.71043 -18.76731,-39.71043 h -95.02432 c -16.03535,0 -31.5362,9.87452 -44.00813,27.92472 l -27.61644,40.02895 H 69.245031 c -5.22634,0 -9.502435,7.64479 -9.502435,16.98842 v 101.9305 c 0,9.34363 4.276095,16.98842 9.502435,16.98842 H 281.14928 c 8.61159,0 16.9856,-5.2027 23.75607,-14.86487 l 89.79799,-128.4749 c 9.02732,-12.84749 9.74,-37.48069 0.77208,-51.92085 z"
     id="path1"
     style="stroke-width:0.794098" />
  <path
     d="m 365.81567,117.43299 c -8.72588,0 -15.77559,5.67635 -15.77559,12.70233 0,7.02598 7.04971,12.70233 15.77559,12.70233 8.72587,0 15.77559,-5.67635 15.77559,-12.70233 0,-7.02598 -7.04972,-12.70233 -15.77559,-12.70233 z m 55.21456,0 c -8.72587,0 -15.77559,5.67635 -15.77559,12.70233 0,7.02598 7.04972,12.70233 15.77559,12.70233 8.72588,0 15.77559,-5.67635 15.77559,-12.70233 0,-7.02598 -7.04971,-12.70233 -15.77559,-12.70233 z m 55.21458,0 c -8.72588,0 -15.7756,5.67635 -15.7756,12.70233 0,7.02598 7.04972,12.70233 15.7756,12.70233 8.72587,0 15.77559,-5.67635 15.77559,-12.70233 0,-7.02598 -7.04972,-12.70233 -15.77559,-12.70233 z M 421.03023,47.570142 c -69.70838,0 -126.20472,36.955855 -126.20472,82.565178 0,18.89472 9.81044,36.20165 26.07902,50.13453 -7.34551,15.63975 -22.62811,28.89781 -22.87461,29.05659 -3.25371,2.77863 -4.14109,6.82751 -2.26774,10.32065 1.87335,3.49314 6.16235,5.75574 10.89502,5.75574 30.31872,0 54.22859,-10.20156 68.57452,-18.37869 14.24733,3.61222 29.62853,5.67636 45.79851,5.67636 69.7084,0 126.20473,-36.95586 126.20473,-82.56518 0,-45.609323 -56.49633,-82.565178 -126.20473,-82.565178 z m 0,146.076858 c -13.16275,0 -26.17761,-1.62749 -38.6502,-4.80308 l -11.1908,-2.85802 -9.61325,5.47788 c -7.04971,4.00917 -16.71227,8.49468 -28.34677,11.51149 3.5988,-4.80307 7.09901,-10.20156 9.81045,-15.95731 l 5.22566,-11.15423 -10.15554,-8.65347 c -8.92306,-7.6611 -19.62089,-20.32373 -19.62089,-37.07494 0,-35.010811 45.99571,-63.511676 102.54134,-63.511676 56.54564,0 102.54135,28.500865 102.54135,63.511676 0,35.01081 -45.99571,63.51168 -102.54135,63.51168 z"
     id="path1-4"
     style="stroke-width:0.442369" />
</svg>
