<?xml version="1.0" encoding="UTF-8" standalone="no"?>
<svg
   viewBox="0 0 640 512"
   version="1.1"
   id="svg1"
   sodipodi:docname="motivate.svg"
   inkscape:version="1.3.2 (091e20e, 2023-11-25, custom)"
   xmlns:inkscape="http://www.inkscape.org/namespaces/inkscape"
   xmlns:sodipodi="http://sodipodi.sourceforge.net/DTD/sodipodi-0.dtd"
   xmlns="http://www.w3.org/2000/svg"
   xmlns:svg="http://www.w3.org/2000/svg">
  <defs
     id="defs1" />
  <sodipodi:namedview
     id="namedview1"
     pagecolor="#ffffff"
     bordercolor="#000000"
     borderopacity="0.25"
     inkscape:showpageshadow="2"
     inkscape:pageopacity="0.0"
     inkscape:pagecheckerboard="0"
     inkscape:deskcolor="#d1d1d1"
     showgrid="false"
     inkscape:zoom="1.5175781"
     inkscape:cx="320.2471"
     inkscape:cy="170.99614"
     inkscape:window-width="1920"
     inkscape:window-height="991"
     inkscape:window-x="-9"
     inkscape:window-y="-9"
     inkscape:window-maximized="1"
     inkscape:current-layer="svg1" />
  <!--!Font Awesome Free 6.5.2 by @fontawesome - https://fontawesome.com License - https://fontawesome.com/license/free Copyright 2024 Fonticons, Inc.-->
  <path
     d="m 219.56735,171.09137 c 15.23207,0 27.59016,-14.00128 27.59016,-31.25869 0,-17.25738 -12.35809,-31.25868 -27.59016,-31.25868 -15.23205,0 -27.59014,14.0013 -27.59014,31.25868 0,17.25741 12.35809,31.25869 27.59014,31.25869 z m 220.72117,0 c 15.23205,0 27.59011,-14.00128 27.59011,-31.25869 0,-17.25738 -12.35806,-31.25868 -27.59011,-31.25868 -15.23207,0 -27.59015,14.0013 -27.59015,31.25868 0,17.25741 12.35808,31.25869 27.59015,31.25869 z m 72.25169,242.31996 -25.29097,-71.63451 -23.62408,30.21675 -1.14958,11.85224 15.92181,45.06462 C 481.27137,437.0507 488.1689,442 495.46878,442 c 2.2992,0 4.59837,-0.45585 6.84007,-1.49781 9.42664,-4.29806 14.02498,-16.41082 10.23136,-27.09086 z m -19.65799,-136.62652 -10.6337,-52.22805 c -2.64405,-13.02445 -10.69118,-23.96499 -21.5548,-29.2399 -10.63369,-5.20978 -22.41699,-4.36319 -32.24599,2.14905 -13.04783,8.72635 -22.81935,22.46717 -27.64762,38.6826 l -6.49516,22.07646 -9.19673,6.64247 v -62.51738 c 0,-5.73075 -4.13853,-10.41957 -9.19671,-10.41957 h -91.96714 c -5.0582,0 -9.19674,4.68882 -9.19674,10.41957 v 62.51738 l -9.25419,-6.64247 -6.49517,-22.07646 c -4.77081,-16.28055 -14.59979,-29.95625 -27.64763,-38.6826 -9.88646,-6.51224 -21.61228,-7.35883 -32.24598,-2.14905 -10.86362,5.27491 -18.91075,16.21545 -21.55479,29.2399 l -10.57622,52.22805 c -2.64407,13.02445 0.40234,26.83038 8.27704,36.92432 l 38.62619,49.4278 5.80544,60.30322 C 220.71694,434.0551 228.64911,442 237.96078,442 c 0.68977,0 1.32202,-0.0652 2.01177,-0.13025 10.1164,-1.23731 17.3588,-11.52664 16.26671,-22.98817 l -5.80542,-60.43344 c -0.86221,-8.4659 -3.96609,-16.34569 -8.9668,-22.7928 l -24.88863,-31.90992 10.11639,-45.78095 3.90861,13.28495 c 2.35667,8.14029 6.84006,15.23861 14.08247,21.22987 l 29.372,21.16473 c 2.64406,1.88854 6.95501,2.99562 9.88649,3.25611 h 91.96714 c 2.93145,-0.26049 7.24241,-1.36757 9.88646,-3.25611 l 29.37202,-21.16473 c 7.24239,-5.99126 11.72581,-13.02446 14.08245,-21.22987 l 3.90861,-13.28495 10.11639,45.78095 -24.88862,31.90992 c -5.00071,6.44711 -8.1046,14.3269 -8.96679,22.7928 l -5.80542,60.43344 c -1.09213,11.46153 6.20778,21.75086 16.26667,22.98817 0.68977,0.0652 1.32203,0.13025 2.0118,0.13025 9.25419,0 17.24382,-7.8798 18.27847,-18.55985 l 5.80541,-60.30322 38.6262,-49.4278 c 7.81721,-10.09394 10.92112,-23.89987 8.27706,-36.92432 z m -320.27559,64.99201 -25.29097,71.63451 c -3.79364,10.68004 0.80471,22.7928 10.23134,27.09086 9.65654,4.29806 20.17531,-1.10708 23.91148,-11.59176 l 15.9218,-45.06462 -1.14958,-11.85224 z"
     id="path1"
     style="stroke-width:0.611816" />
</svg>
