<?xml version="1.0" encoding="UTF-8" standalone="no"?>
<svg
   width="16"
   height="16"
   fill="currentColor"
   class="bi bi-book"
   viewBox="0 0 16 16"
   version="1.1"
   id="svg1"
   sodipodi:docname="writing.svg"
   inkscape:version="1.3.2 (091e20e, 2023-11-25, custom)"
   xmlns:inkscape="http://www.inkscape.org/namespaces/inkscape"
   xmlns:sodipodi="http://sodipodi.sourceforge.net/DTD/sodipodi-0.dtd"
   xmlns="http://www.w3.org/2000/svg"
   xmlns:svg="http://www.w3.org/2000/svg">
  <defs
     id="defs1" />
  <sodipodi:namedview
     id="namedview1"
     pagecolor="#ffffff"
     bordercolor="#000000"
     borderopacity="0.25"
     inkscape:showpageshadow="2"
     inkscape:pageopacity="0.0"
     inkscape:pagecheckerboard="0"
     inkscape:deskcolor="#d1d1d1"
     showgrid="false"
     inkscape:zoom="48.5625"
     inkscape:cx="8"
     inkscape:cy="9.2767053"
     inkscape:window-width="1920"
     inkscape:window-height="991"
     inkscape:window-x="-9"
     inkscape:window-y="-9"
     inkscape:window-maximized="1"
     inkscape:current-layer="svg1" />
  <path
     d="M 2.1531531,5.0754549 C 2.8559138,4.8345322 3.8636011,4.5747265 4.8434955,4.4939848 5.8996217,4.4067318 6.7953437,4.5350068 7.3146719,4.9836438 V 11.329676 C 6.5722072,10.98457 5.6312227,10.937037 4.7632935,11.008663 3.8262793,11.0868 2.8813244,11.308839 2.1531531,11.536739 Z m 5.9555985,-0.091811 c 0.5193282,-0.448637 1.4150502,-0.576912 2.4711764,-0.489659 0.979894,0.080742 1.987581,0.3405474 2.690342,0.5814701 v 6.461284 c -0.728965,-0.2279 -1.673126,-0.45059 -2.61014,-0.527425 -0.8687233,-0.07228 -1.8089137,-0.02539 -2.5513784,0.320362 z M 7.7117118,4.3950112 C 6.9295432,3.8434937 5.7955972,3.7614498 4.7632935,3.8460983 3.5610567,3.945723 2.3477027,4.2836659 1.5917387,4.5656105 A 0.3970399,0.32557113 0 0 0 1.3590734,4.8618802 v 7.1625648 a 0.3970399,0.32557113 0 0 0 0.5614144,0.296269 c 0.7003784,-0.260457 1.8287658,-0.573656 2.9222137,-0.664165 1.1188584,-0.09246 2.0566666,0.05665 2.5593191,0.571052 a 0.3970399,0.32557113 0 0 0 0.6193823,0 c 0.5026525,-0.514402 1.4404607,-0.663514 2.5585251,-0.571052 1.094242,0.09051 2.223423,0.403708 2.923007,0.664165 A 0.3970399,0.32557113 0 0 0 14.06435,12.024445 V 4.8618802 A 0.3970399,0.32557113 0 0 0 13.831684,4.5656105 C 13.07572,4.2836659 11.862366,3.945723 10.66013,3.8460983 9.6278263,3.7607986 8.4938803,3.8434937 7.7117118,4.3950112"
     id="path1"
     style="stroke-width:0.719068" />
  <path
     fill-rule="evenodd"
     d="m 2.5830116,10.441313 a 0.16966967,0.27039897 0 0 1 0.1696697,-0.270399 h 2.3753753 a 0.16966969,0.270399 0 0 1 0,0.540798 H 2.7526813 A 0.16966967,0.27039897 0 0 1 2.5830116,10.441313 m 0,-1.622394 A 0.16966967,0.27039897 0 0 1 2.7526813,8.54852 H 6.485414 a 0.16966969,0.270399 0 0 1 0,0.540798 H 2.7526813 A 0.16966967,0.27039897 0 0 1 2.5830116,8.818919 m 0,-1.6223939 A 0.16966967,0.27039897 0 0 1 2.7526813,6.9261261 H 6.485414 a 0.16966969,0.270399 0 0 1 0,0.540798 H 2.7526813 A 0.16966967,0.27039897 0 0 1 2.5830116,7.1965251 m 0,-1.6223938 A 0.16966967,0.27039897 0 0 1 2.7526813,5.3037323 H 6.485414 a 0.16966967,0.27039897 0 0 1 0,0.5407979 H 2.7526813 A 0.16966967,0.27039897 0 0 1 2.5830116,5.5741313"
     id="path1-4"
     style="stroke-width:0.428385" />
  <path
     fill-rule="evenodd"
     d="m 8.4221364,10.392664 a 0.18768817,0.26628057 0 0 1 0.1876882,-0.26628 h 2.6276344 a 0.18768817,0.26628057 0 0 1 0,0.532561 H 8.6098246 A 0.18768817,0.26628057 0 0 1 8.4221364,10.392664 m 0,-1.597683 A 0.18768817,0.26628057 0 0 1 8.6098246,8.5287 h 4.1291404 a 0.18768817,0.26628057 0 0 1 0,0.532561 H 8.6098246 A 0.18768817,0.26628057 0 0 1 8.4221364,8.794981 m 0,-1.5976837 A 0.18768817,0.26628057 0 0 1 8.6098246,6.9310168 h 4.1291404 a 0.18768817,0.26628057 0 0 1 0,0.5325611 H 8.6098246 A 0.18768817,0.26628057 0 0 1 8.4221364,7.1972973 m 0,-1.5976834 A 0.18768817,0.26628057 0 0 1 8.6098246,5.3333334 h 4.1291404 a 0.18768817,0.26628057 0 0 1 0,0.5325611 H 8.6098246 A 0.18768817,0.26628057 0 0 1 8.4221364,5.5996139"
     id="path1-5"
     style="stroke-width:0.447114" />
  <path
     d="m 15.17975,5.6840592 0.04176,-0.044495 a 0.3384224,0.36055367 0 1 1 0.478461,0.5100491 l -0.04176,0.044196 a 0.42044056,0.44793543 0 0 1 -0.01653,0.6148659 L 12.756894,9.88241 a 0.14014686,0.14931182 0 0 1 -0.0653,0.03912 l -1.121181,0.298626 a 0.14014686,0.14931182 0 0 1 -0.169858,-0.180967 l 0.280294,-1.194494 a 0.14014686,0.14931182 0 0 1 0.03672,-0.06927 L 14.42016,5.8960913 a 0.14014686,0.14931182 0 0 0 -0.179948,0.016722 L 13.317479,6.8961725 A 0.14032392,0.14950048 0 1 1 13.119031,6.6847469 l 0.923288,-0.983069 a 0.42044056,0.44793543 0 0 1 0.577404,-0.017321 0.42044056,0.44793543 0 0 1 0.560027,-2.986e-4"
     id="path1-2"
     style="stroke-width:0.289314" />
</svg>
